<svg xmlns="http://www.w3.org/2000/svg" xmlns:xlink="http://www.w3.org/1999/xlink" width="1050" zoomAndPan="magnify" viewBox="0 0 787.5 449.999984" height="600" preserveAspectRatio="xMidYMid meet" version="1.0"><defs><g/><clipPath id="d591bde8ae"><path d="M 0 0.144531 L 787 0.144531 L 787 267.964844 L 0 267.964844 Z M 0 0.144531 " clip-rule="nonzero"/></clipPath><clipPath id="405cbdd804"><path d="M 0 0.144531 L 787 0.144531 L 787 267.964844 L 0 267.964844 Z M 0 0.144531 " clip-rule="nonzero"/></clipPath><clipPath id="2f9c00664d"><rect x="0" width="787" y="0" height="268"/></clipPath><clipPath id="3d050cd2b9"><rect x="0" width="490" y="0" height="238"/></clipPath><clipPath id="29c8bdecef"><rect x="0" width="760" y="0" height="129"/></clipPath><clipPath id="3530104a59"><path d="M 39 391 L 748 391 L 748 449.855469 L 39 449.855469 Z M 39 391 " clip-rule="nonzero"/></clipPath><clipPath id="2c9e2b2cc3"><rect x="0" width="709" y="0" height="59"/></clipPath><clipPath id="1e60268a18"><path d="M 528.871094 9.1875 L 532.675781 9.1875 L 532.675781 154.976562 L 528.871094 154.976562 Z M 528.871094 9.1875 " clip-rule="nonzero"/></clipPath><clipPath id="6dbb918b05"><path d="M 0.871094 0.1875 L 4.675781 0.1875 L 4.675781 145.976562 L 0.871094 145.976562 Z M 0.871094 0.1875 " clip-rule="nonzero"/></clipPath><clipPath id="83a3729c6a"><rect x="0" width="5" y="0" height="146"/></clipPath><clipPath id="acdf735a68"><path d="M 26.753906 279.445312 L 760.234375 279.445312 L 760.234375 283.191406 L 26.753906 283.191406 Z M 26.753906 279.445312 " clip-rule="nonzero"/></clipPath><clipPath id="880ccb1cc8"><path d="M 0.753906 0.445312 L 734.234375 0.445312 L 734.234375 4.191406 L 0.753906 4.191406 Z M 0.753906 0.445312 " clip-rule="nonzero"/></clipPath><clipPath id="974c97d102"><rect x="0" width="735" y="0" height="5"/></clipPath></defs><g clip-path="url(#d591bde8ae)"><g transform="matrix(1, 0, 0, 1, 0, 0.000000000000014183)"><g clip-path="url(#2f9c00664d)"><g clip-path="url(#405cbdd804)"><path fill="#004aad" d="M 0 0.144531 L 786.730469 0.144531 L 786.730469 267.964844 L 0 267.964844 Z M 0 0.144531 " fill-opacity="1" fill-rule="nonzero"/></g></g></g></g><g transform="matrix(1, 0, 0, 1, 296, 1)"><g clip-path="url(#3d050cd2b9)"><g fill="#ffffff" fill-opacity="1"><g transform="translate(1.279152, 179.02877)"><g><path d="M 81.140625 -167.96875 C 121.148438 -167.96875 141.15625 -153.734375 141.15625 -125.265625 C 141.15625 -115.773438 138.503906 -107.90625 133.203125 -101.65625 C 127.910156 -95.40625 120.914062 -90.9375 112.21875 -88.25 L 112.21875 -87.78125 C 123.28125 -86.351562 132.171875 -81.921875 138.890625 -74.484375 C 145.617188 -67.054688 148.984375 -57.804688 148.984375 -46.734375 C 148.984375 -32.179688 143.289062 -20.753906 131.90625 -12.453125 C 120.519531 -4.148438 105.253906 0 86.109375 0 L 17.078125 0 L 17.078125 -167.96875 Z M 81.609375 -100.828125 C 88.253906 -100.828125 93.671875 -102.445312 97.859375 -105.6875 C 102.046875 -108.925781 104.140625 -113.394531 104.140625 -119.09375 C 104.140625 -124.78125 101.960938 -129.125 97.609375 -132.125 C 93.265625 -135.132812 87.378906 -136.640625 79.953125 -136.640625 L 54.09375 -136.640625 L 54.09375 -100.828125 Z M 88.015625 -31.3125 C 94.816406 -31.3125 100.507812 -33.007812 105.09375 -36.40625 C 109.675781 -39.8125 111.96875 -44.675781 111.96875 -51 C 111.96875 -56.851562 109.515625 -61.398438 104.609375 -64.640625 C 99.710938 -67.890625 92.519531 -69.515625 83.03125 -69.515625 L 54.09375 -69.515625 L 54.09375 -31.3125 Z M 88.015625 -31.3125 "/></g></g></g><g fill="#ffffff" fill-opacity="1"><g transform="translate(155.004519, 179.02877)"><g><path d="M 80.65625 -167.96875 C 122.414062 -167.96875 143.296875 -150.960938 143.296875 -116.953125 C 143.296875 -82.640625 122.972656 -65.484375 82.328125 -65.484375 L 54.09375 -65.484375 L 54.09375 0 L 17.078125 0 L 17.078125 -167.96875 Z M 79.46875 -96.796875 C 86.90625 -96.796875 92.992188 -98.414062 97.734375 -101.65625 C 102.484375 -104.894531 104.859375 -109.992188 104.859375 -116.953125 C 104.859375 -130.078125 94.578125 -136.640625 74.015625 -136.640625 L 54.09375 -136.640625 L 54.09375 -96.796875 Z M 79.46875 -96.796875 "/></g></g></g><g fill="#ffffff" fill-opacity="1"><g transform="translate(304.459755, 179.02877)"><g><path d="M 98.921875 -172.234375 C 127.546875 -172.234375 149.769531 -165.035156 165.59375 -150.640625 L 139.5 -122.171875 C 129.6875 -132.773438 116.160156 -138.078125 98.921875 -138.078125 C 83.421875 -138.078125 70.804688 -133.050781 61.078125 -123 C 51.359375 -112.957031 46.5 -99.953125 46.5 -83.984375 C 46.5 -67.847656 51.359375 -54.796875 61.078125 -44.828125 C 70.804688 -34.867188 83.421875 -29.890625 98.921875 -29.890625 C 111.578125 -29.890625 123.125 -32.65625 133.5625 -38.1875 L 133.5625 -65.484375 L 103.4375 -65.484375 L 103.4375 -99.640625 L 169.140625 -99.640625 L 169.140625 -11.859375 C 149.054688 -1.109375 125.648438 4.265625 98.921875 4.265625 C 71.878906 4.265625 49.972656 -3.835938 33.203125 -20.046875 C 16.441406 -36.253906 8.0625 -57.566406 8.0625 -83.984375 C 8.0625 -110.390625 16.441406 -131.695312 33.203125 -147.90625 C 49.972656 -164.125 71.878906 -172.234375 98.921875 -172.234375 Z M 98.921875 -172.234375 "/></g></g></g></g></g><g transform="matrix(1, 0, 0, 1, 22, 286)"><g clip-path="url(#29c8bdecef)"><g fill="#000000" fill-opacity="1"><g transform="translate(0.890699, 96.929473)"><g><path d="M 43.90625 -90.90625 C 65.5625 -90.90625 76.390625 -83.203125 76.390625 -67.796875 C 76.390625 -62.660156 74.957031 -58.398438 72.09375 -55.015625 C 69.226562 -51.628906 65.441406 -49.210938 60.734375 -47.765625 L 60.734375 -47.5 C 66.722656 -46.726562 71.535156 -44.332031 75.171875 -40.3125 C 78.804688 -36.289062 80.625 -31.285156 80.625 -25.296875 C 80.625 -17.421875 77.539062 -11.234375 71.375 -6.734375 C 65.21875 -2.242188 56.960938 0 46.609375 0 L 9.25 0 L 9.25 -90.90625 Z M 44.171875 -54.5625 C 47.765625 -54.5625 50.691406 -55.4375 52.953125 -57.1875 C 55.222656 -58.945312 56.359375 -61.367188 56.359375 -64.453125 C 56.359375 -67.535156 55.179688 -69.890625 52.828125 -71.515625 C 50.472656 -73.140625 47.285156 -73.953125 43.265625 -73.953125 L 29.265625 -73.953125 L 29.265625 -54.5625 Z M 47.640625 -16.953125 C 51.316406 -16.953125 54.394531 -17.867188 56.875 -19.703125 C 59.351562 -21.546875 60.59375 -24.179688 60.59375 -27.609375 C 60.59375 -30.773438 59.265625 -33.234375 56.609375 -34.984375 C 53.960938 -36.742188 50.070312 -37.625 44.9375 -37.625 L 29.265625 -37.625 L 29.265625 -16.953125 Z M 47.640625 -16.953125 "/></g></g></g><g fill="#000000" fill-opacity="1"><g transform="translate(100.650582, 96.929473)"><g><path d="M 29.265625 -90.90625 L 29.265625 -35.5625 C 29.265625 -29.914062 31.039062 -25.269531 34.59375 -21.625 C 38.144531 -17.988281 42.492188 -16.171875 47.640625 -16.171875 C 52.859375 -16.171875 57.195312 -18.078125 60.65625 -21.890625 C 64.125 -25.703125 65.859375 -30.257812 65.859375 -35.5625 L 65.859375 -90.90625 L 85.890625 -90.90625 L 85.890625 -34.671875 C 85.890625 -23.535156 82.460938 -14.585938 75.609375 -7.828125 C 68.765625 -1.066406 59.441406 2.3125 47.640625 2.3125 C 35.910156 2.3125 26.578125 -1.046875 19.640625 -7.765625 C 12.710938 -14.484375 9.25 -23.453125 9.25 -34.671875 L 9.25 -90.90625 Z M 29.265625 -90.90625 "/></g></g></g><g fill="#000000" fill-opacity="1"><g transform="translate(212.350763, 96.929473)"><g><path d="M 29.015625 -90.90625 L 29.015625 0 L 8.984375 0 L 8.984375 -90.90625 Z M 29.015625 -90.90625 "/></g></g></g><g fill="#000000" fill-opacity="1"><g transform="translate(266.917314, 96.929473)"><g><path d="M 30.046875 -90.90625 L 30.046875 -18.484375 L 67.140625 -18.484375 L 67.140625 0 L 10.015625 0 L 10.015625 -90.90625 Z M 30.046875 -90.90625 "/></g></g></g><g fill="#000000" fill-opacity="1"><g transform="translate(352.425899, 96.929473)"><g><path d="M 40.0625 -90.90625 C 56.664062 -90.90625 69.648438 -86.921875 79.015625 -78.953125 C 88.390625 -70.992188 93.078125 -59.785156 93.078125 -45.328125 C 93.078125 -36.503906 90.914062 -28.644531 86.59375 -21.75 C 82.269531 -14.863281 76.253906 -9.515625 68.546875 -5.703125 C 60.847656 -1.898438 52.164062 0 42.5 0 L 9.25 0 L 9.25 -90.90625 Z M 40.3125 -18.484375 C 50.757812 -18.484375 58.695312 -20.859375 64.125 -25.609375 C 69.5625 -30.359375 72.28125 -37.1875 72.28125 -46.09375 C 72.28125 -54.132812 69.5 -60.53125 63.9375 -65.28125 C 58.375 -70.03125 50.925781 -72.40625 41.59375 -72.40625 L 29.265625 -72.40625 L 29.265625 -18.484375 Z M 40.3125 -18.484375 "/></g></g></g><g fill="#000000" fill-opacity="1"><g transform="translate(466.437102, 96.929473)"><g><path d="M 29.015625 -90.90625 L 29.015625 0 L 8.984375 0 L 8.984375 -90.90625 Z M 29.015625 -90.90625 "/></g></g></g><g fill="#000000" fill-opacity="1"><g transform="translate(521.003653, 96.929473)"><g><path d="M 36.46875 -90.90625 L 75.109375 -27.734375 L 75.359375 -27.734375 L 75.359375 -90.90625 L 95.390625 -90.90625 L 95.390625 0 L 69.203125 0 L 29.53125 -64.703125 L 29.265625 -64.703125 L 29.265625 0 L 9.25 0 L 9.25 -90.90625 Z M 36.46875 -90.90625 "/></g></g></g><g fill="#000000" fill-opacity="1"><g transform="translate(642.204705, 96.929473)"><g><path d="M 53.53125 -93.21875 C 69.03125 -93.21875 81.054688 -89.320312 89.609375 -81.53125 L 75.5 -66.125 C 70.1875 -71.851562 62.863281 -74.71875 53.53125 -74.71875 C 45.144531 -74.71875 38.320312 -72 33.0625 -66.5625 C 27.800781 -61.132812 25.171875 -54.097656 25.171875 -45.453125 C 25.171875 -36.722656 27.800781 -29.660156 33.0625 -24.265625 C 38.320312 -18.867188 45.144531 -16.171875 53.53125 -16.171875 C 60.382812 -16.171875 66.632812 -17.671875 72.28125 -20.671875 L 72.28125 -35.4375 L 55.984375 -35.4375 L 55.984375 -53.921875 L 91.546875 -53.921875 L 91.546875 -6.421875 C 80.671875 -0.597656 68 2.3125 53.53125 2.3125 C 38.894531 2.3125 27.039062 -2.070312 17.96875 -10.84375 C 8.894531 -19.625 4.359375 -31.160156 4.359375 -45.453125 C 4.359375 -59.742188 8.894531 -71.273438 17.96875 -80.046875 C 27.039062 -88.828125 38.894531 -93.21875 53.53125 -93.21875 Z M 53.53125 -93.21875 "/></g></g></g></g></g><g clip-path="url(#3530104a59)"><g transform="matrix(1, 0, 0, 1, 39, 391)"><g clip-path="url(#2c9e2b2cc3)"><g fill="#000000" fill-opacity="1"><g transform="translate(1.40128, 46.874289)"><g><path d="M 25.484375 -43.265625 L 44.125 0 L 35.328125 0 L 31.28125 -9.90625 L 12.53125 -9.90625 L 8.609375 0 L 0 0 L 18.828125 -43.265625 Z M 15.15625 -16.5 L 28.59375 -16.5 L 21.9375 -34.09375 Z M 15.15625 -16.5 "/></g></g></g><g fill="#000000" fill-opacity="1"><g transform="translate(45.525692, 46.874289)"><g><path d="M 15.03125 -43.265625 L 36 -11.125 L 36.109375 -11.125 L 36.109375 -43.265625 L 43.8125 -43.265625 L 43.8125 0 L 34.03125 0 L 12.65625 -33.1875 L 12.53125 -33.1875 L 12.53125 0 L 4.828125 0 L 4.828125 -43.265625 Z M 15.03125 -43.265625 "/></g></g></g><g fill="#000000" fill-opacity="1"><g transform="translate(94.172545, 46.874289)"><g><path d="M 22.0625 -43.265625 C 26.175781 -43.265625 29.910156 -42.367188 33.265625 -40.578125 C 36.628906 -38.785156 39.238281 -36.269531 41.09375 -33.03125 C 42.945312 -29.789062 43.875 -25.988281 43.875 -21.625 C 43.875 -17.3125 42.84375 -13.546875 40.78125 -10.328125 C 38.726562 -7.109375 35.9375 -4.582031 32.40625 -2.75 C 28.882812 -0.914062 25.128906 0 21.140625 0 L 4.828125 0 L 4.828125 -43.265625 Z M 18.578125 -6.96875 C 23.953125 -6.96875 28.164062 -8.25 31.21875 -10.8125 C 34.28125 -13.382812 35.8125 -16.988281 35.8125 -21.625 C 35.8125 -26.394531 34.414062 -30.03125 31.625 -32.53125 C 28.832031 -35.039062 24.828125 -36.296875 19.609375 -36.296875 L 12.53125 -36.296875 L 12.53125 -6.96875 Z M 18.578125 -6.96875 "/></g></g></g><g fill="#000000" fill-opacity="1"><g transform="translate(140.558178, 46.874289)"><g/></g></g><g fill="#000000" fill-opacity="1"><g transform="translate(158.647962, 46.874289)"><g><path d="M 19.671875 -43.265625 C 24.679688 -43.265625 28.539062 -42.175781 31.25 -40 C 33.96875 -37.820312 35.328125 -34.773438 35.328125 -30.859375 C 35.328125 -26.335938 33.957031 -23.046875 31.21875 -20.984375 C 28.488281 -18.929688 24.234375 -17.90625 18.453125 -17.90625 L 12.53125 -17.90625 L 12.53125 0 L 4.828125 0 L 4.828125 -43.265625 Z M 17.53125 -24.5 C 21.125 -24.5 23.640625 -25.007812 25.078125 -26.03125 C 26.523438 -27.050781 27.25 -28.578125 27.25 -30.609375 C 27.25 -34.648438 24.253906 -36.671875 18.265625 -36.671875 L 12.53125 -36.671875 L 12.53125 -24.5 Z M 17.53125 -24.5 "/></g></g></g><g fill="#000000" fill-opacity="1"><g transform="translate(195.988693, 46.874289)"><g><path d="M 20.109375 -43.265625 C 25.273438 -43.265625 29.210938 -42.191406 31.921875 -40.046875 C 34.640625 -37.910156 36 -34.847656 36 -30.859375 C 36 -27.597656 35.085938 -24.9375 33.265625 -22.875 C 31.453125 -20.820312 29.019531 -19.570312 25.96875 -19.125 L 37.453125 0 L 28.171875 0 L 18.15625 -18.328125 L 12.53125 -18.328125 L 12.53125 0 L 4.828125 0 L 4.828125 -43.265625 Z M 18.875 -24.9375 C 22.21875 -24.9375 24.5625 -25.429688 25.90625 -26.421875 C 27.25 -27.421875 27.921875 -28.921875 27.921875 -30.921875 C 27.921875 -34.753906 25.09375 -36.671875 19.4375 -36.671875 L 12.53125 -36.671875 L 12.53125 -24.9375 Z M 18.875 -24.9375 "/></g></g></g><g fill="#000000" fill-opacity="1"><g transform="translate(234.490604, 46.874289)"><g><path d="M 48.40625 -21.6875 C 48.40625 -14.96875 46.234375 -9.488281 41.890625 -5.25 C 37.546875 -1.019531 31.992188 1.09375 25.234375 1.09375 C 18.597656 1.09375 13.148438 -0.988281 8.890625 -5.15625 C 4.628906 -9.332031 2.5 -14.765625 2.5 -21.453125 C 2.5 -25.847656 3.445312 -29.785156 5.34375 -33.265625 C 7.238281 -36.753906 9.945312 -39.472656 13.46875 -41.421875 C 17 -43.378906 21.066406 -44.359375 25.671875 -44.359375 C 32.390625 -44.359375 37.859375 -42.300781 42.078125 -38.1875 C 46.296875 -34.070312 48.40625 -28.570312 48.40625 -21.6875 Z M 10.578125 -21.9375 C 10.578125 -17.25 11.953125 -13.394531 14.703125 -10.375 C 17.453125 -7.363281 21.023438 -5.859375 25.421875 -5.859375 C 29.773438 -5.859375 33.347656 -7.335938 36.140625 -10.296875 C 38.929688 -13.253906 40.328125 -17.132812 40.328125 -21.9375 C 40.328125 -26.375 38.941406 -30.0625 36.171875 -33 C 33.398438 -35.9375 29.796875 -37.40625 25.359375 -37.40625 C 21.160156 -37.40625 17.644531 -35.957031 14.8125 -33.0625 C 11.988281 -30.164062 10.578125 -26.457031 10.578125 -21.9375 Z M 10.578125 -21.9375 "/></g></g></g><g fill="#000000" fill-opacity="1"><g transform="translate(285.398688, 46.874289)"><g><path d="M 19.671875 -43.265625 C 24.679688 -43.265625 28.539062 -42.175781 31.25 -40 C 33.96875 -37.820312 35.328125 -34.773438 35.328125 -30.859375 C 35.328125 -26.335938 33.957031 -23.046875 31.21875 -20.984375 C 28.488281 -18.929688 24.234375 -17.90625 18.453125 -17.90625 L 12.53125 -17.90625 L 12.53125 0 L 4.828125 0 L 4.828125 -43.265625 Z M 17.53125 -24.5 C 21.125 -24.5 23.640625 -25.007812 25.078125 -26.03125 C 26.523438 -27.050781 27.25 -28.578125 27.25 -30.609375 C 27.25 -34.648438 24.253906 -36.671875 18.265625 -36.671875 L 12.53125 -36.671875 L 12.53125 -24.5 Z M 17.53125 -24.5 "/></g></g></g><g fill="#000000" fill-opacity="1"><g transform="translate(322.739428, 46.874289)"><g><path d="M 33.484375 -43.265625 L 33.484375 -36.296875 L 12.53125 -36.296875 L 12.53125 -25.671875 L 32.390625 -25.671875 L 32.390625 -18.703125 L 12.53125 -18.703125 L 12.53125 -6.96875 L 34.59375 -6.96875 L 34.59375 0 L 4.828125 0 L 4.828125 -43.265625 Z M 33.484375 -43.265625 "/></g></g></g><g fill="#000000" fill-opacity="1"><g transform="translate(360.08019, 46.874289)"><g><path d="M 20.109375 -43.265625 C 25.273438 -43.265625 29.210938 -42.191406 31.921875 -40.046875 C 34.640625 -37.910156 36 -34.847656 36 -30.859375 C 36 -27.597656 35.085938 -24.9375 33.265625 -22.875 C 31.453125 -20.820312 29.019531 -19.570312 25.96875 -19.125 L 37.453125 0 L 28.171875 0 L 18.15625 -18.328125 L 12.53125 -18.328125 L 12.53125 0 L 4.828125 0 L 4.828125 -43.265625 Z M 18.875 -24.9375 C 22.21875 -24.9375 24.5625 -25.429688 25.90625 -26.421875 C 27.25 -27.421875 27.921875 -28.921875 27.921875 -30.921875 C 27.921875 -34.753906 25.09375 -36.671875 19.4375 -36.671875 L 12.53125 -36.671875 L 12.53125 -24.9375 Z M 18.875 -24.9375 "/></g></g></g><g fill="#000000" fill-opacity="1"><g transform="translate(397.48199, 46.874289)"><g><path d="M 34.65625 -43.265625 L 34.65625 -36.296875 L 21.390625 -36.296875 L 21.390625 0 L 13.6875 0 L 13.6875 -36.296875 L 0.421875 -36.296875 L 0.421875 -43.265625 Z M 34.65625 -43.265625 "/></g></g></g><g fill="#000000" fill-opacity="1"><g transform="translate(432.561489, 46.874289)"><g><path d="M 8.796875 -43.265625 L 19.4375 -26.03125 L 30.1875 -43.265625 L 39.359375 -43.265625 L 23.09375 -18.515625 L 23.09375 0 L 15.40625 0 L 15.40625 -18.515625 L -0.859375 -43.265625 Z M 8.796875 -43.265625 "/></g></g></g><g fill="#000000" fill-opacity="1"><g transform="translate(471.063401, 46.874289)"><g/></g></g><g fill="#000000" fill-opacity="1"><g transform="translate(489.153206, 46.874289)"><g><path d="M 25.421875 -44.359375 C 32.710938 -44.359375 38.375 -42.546875 42.40625 -38.921875 L 36.734375 -33.1875 C 35.265625 -34.613281 33.519531 -35.671875 31.5 -36.359375 C 29.488281 -37.054688 27.460938 -37.40625 25.421875 -37.40625 C 21.054688 -37.40625 17.488281 -35.914062 14.71875 -32.9375 C 11.957031 -29.96875 10.578125 -26.300781 10.578125 -21.9375 C 10.578125 -17.164062 11.957031 -13.289062 14.71875 -10.3125 C 17.488281 -7.34375 21.078125 -5.859375 25.484375 -5.859375 C 29.472656 -5.859375 32.832031 -6.613281 35.5625 -8.125 L 35.5625 -18.328125 L 26.703125 -18.328125 L 26.703125 -25.296875 L 43.265625 -25.296875 L 43.265625 -3.171875 C 37.929688 -0.328125 31.984375 1.09375 25.421875 1.09375 C 18.742188 1.09375 13.253906 -0.976562 8.953125 -5.125 C 4.648438 -9.28125 2.5 -14.722656 2.5 -21.453125 C 2.5 -28.296875 4.597656 -33.820312 8.796875 -38.03125 C 12.992188 -42.25 18.535156 -44.359375 25.421875 -44.359375 Z M 25.421875 -44.359375 "/></g></g></g><g fill="#000000" fill-opacity="1"><g transform="translate(536.7, 46.874289)"><g><path d="M 20.109375 -43.265625 C 25.273438 -43.265625 29.210938 -42.191406 31.921875 -40.046875 C 34.640625 -37.910156 36 -34.847656 36 -30.859375 C 36 -27.597656 35.085938 -24.9375 33.265625 -22.875 C 31.453125 -20.820312 29.019531 -19.570312 25.96875 -19.125 L 37.453125 0 L 28.171875 0 L 18.15625 -18.328125 L 12.53125 -18.328125 L 12.53125 0 L 4.828125 0 L 4.828125 -43.265625 Z M 18.875 -24.9375 C 22.21875 -24.9375 24.5625 -25.429688 25.90625 -26.421875 C 27.25 -27.421875 27.921875 -28.921875 27.921875 -30.921875 C 27.921875 -34.753906 25.09375 -36.671875 19.4375 -36.671875 L 12.53125 -36.671875 L 12.53125 -24.9375 Z M 18.875 -24.9375 "/></g></g></g><g fill="#000000" fill-opacity="1"><g transform="translate(575.201912, 46.874289)"><g><path d="M 48.40625 -21.6875 C 48.40625 -14.96875 46.234375 -9.488281 41.890625 -5.25 C 37.546875 -1.019531 31.992188 1.09375 25.234375 1.09375 C 18.597656 1.09375 13.148438 -0.988281 8.890625 -5.15625 C 4.628906 -9.332031 2.5 -14.765625 2.5 -21.453125 C 2.5 -25.847656 3.445312 -29.785156 5.34375 -33.265625 C 7.238281 -36.753906 9.945312 -39.472656 13.46875 -41.421875 C 17 -43.378906 21.066406 -44.359375 25.671875 -44.359375 C 32.390625 -44.359375 37.859375 -42.300781 42.078125 -38.1875 C 46.296875 -34.070312 48.40625 -28.570312 48.40625 -21.6875 Z M 10.578125 -21.9375 C 10.578125 -17.25 11.953125 -13.394531 14.703125 -10.375 C 17.453125 -7.363281 21.023438 -5.859375 25.421875 -5.859375 C 29.773438 -5.859375 33.347656 -7.335938 36.140625 -10.296875 C 38.929688 -13.253906 40.328125 -17.132812 40.328125 -21.9375 C 40.328125 -26.375 38.941406 -30.0625 36.171875 -33 C 33.398438 -35.9375 29.796875 -37.40625 25.359375 -37.40625 C 21.160156 -37.40625 17.644531 -35.957031 14.8125 -33.0625 C 11.988281 -30.164062 10.578125 -26.457031 10.578125 -21.9375 Z M 10.578125 -21.9375 "/></g></g></g><g fill="#000000" fill-opacity="1"><g transform="translate(626.109975, 46.874289)"><g><path d="M 12.34375 -43.265625 L 12.34375 -15.953125 C 12.34375 -13.054688 13.21875 -10.710938 14.96875 -8.921875 C 16.71875 -7.128906 19.082031 -6.234375 22.0625 -6.234375 C 25.03125 -6.234375 27.390625 -7.128906 29.140625 -8.921875 C 30.898438 -10.710938 31.78125 -13.054688 31.78125 -15.953125 L 31.78125 -43.265625 L 39.484375 -43.265625 L 39.484375 -15.578125 C 39.484375 -10.816406 37.890625 -6.847656 34.703125 -3.671875 C 31.523438 -0.492188 27.3125 1.09375 22.0625 1.09375 C 16.84375 1.09375 12.632812 -0.492188 9.4375 -3.671875 C 6.238281 -6.847656 4.640625 -10.816406 4.640625 -15.578125 L 4.640625 -43.265625 Z M 12.34375 -43.265625 "/></g></g></g><g fill="#000000" fill-opacity="1"><g transform="translate(670.234398, 46.874289)"><g><path d="M 19.671875 -43.265625 C 24.679688 -43.265625 28.539062 -42.175781 31.25 -40 C 33.96875 -37.820312 35.328125 -34.773438 35.328125 -30.859375 C 35.328125 -26.335938 33.957031 -23.046875 31.21875 -20.984375 C 28.488281 -18.929688 24.234375 -17.90625 18.453125 -17.90625 L 12.53125 -17.90625 L 12.53125 0 L 4.828125 0 L 4.828125 -43.265625 Z M 17.53125 -24.5 C 21.125 -24.5 23.640625 -25.007812 25.078125 -26.03125 C 26.523438 -27.050781 27.25 -28.578125 27.25 -30.609375 C 27.25 -34.648438 24.253906 -36.671875 18.265625 -36.671875 L 12.53125 -36.671875 L 12.53125 -24.5 Z M 17.53125 -24.5 "/></g></g></g></g></g></g><g clip-path="url(#1e60268a18)"><g transform="matrix(1, 0, 0, 1, 528, 9)"><g clip-path="url(#83a3729c6a)"><g clip-path="url(#6dbb918b05)"><path fill="#004aad" d="M 0.871094 0.1875 L 4.675781 0.1875 L 4.675781 145.984375 L 0.871094 145.984375 Z M 0.871094 0.1875 " fill-opacity="1" fill-rule="nonzero"/></g></g></g></g><g clip-path="url(#acdf735a68)"><g transform="matrix(1, 0, 0, 1, 26, 279)"><g clip-path="url(#974c97d102)"><g clip-path="url(#880ccb1cc8)"><path fill="#000000" d="M 734.234375 0.445312 L 734.234375 4.191406 L 0.753906 4.191406 L 0.753906 0.445312 Z M 734.234375 0.445312 " fill-opacity="1" fill-rule="nonzero"/></g></g></g></g></svg>